<?xml version="1.0" encoding="UTF-8" standalone="no"?>
<!-- Generated by IcoMoon.io -->

<svg
   xmlns:dc="http://purl.org/dc/elements/1.1/"
   xmlns:cc="http://creativecommons.org/ns#"
   xmlns:rdf="http://www.w3.org/1999/02/22-rdf-syntax-ns#"
   xmlns:svg="http://www.w3.org/2000/svg"
   xmlns="http://www.w3.org/2000/svg"
   xmlns:sodipodi="http://sodipodi.sourceforge.net/DTD/sodipodi-0.dtd"
   xmlns:inkscape="http://www.inkscape.org/namespaces/inkscape"
   version="1.1"
   width="64"
   height="64"
   viewBox="0 0 64 64"
   id="svg2"
   inkscape:version="0.48.4 r9939"
   sodipodi:docname="0083-stopwatch.svg">
  <metadata
     id="metadata10">
    <rdf:RDF>
      <cc:Work
         rdf:about="">
        <dc:format>image/svg+xml</dc:format>
        <dc:type
           rdf:resource="http://purl.org/dc/dcmitype/StillImage" />
        <dc:title></dc:title>
      </cc:Work>
    </rdf:RDF>
  </metadata>
  <defs
     id="defs8" />
  <sodipodi:namedview
     pagecolor="#ffffff"
     bordercolor="#666666"
     borderopacity="1"
     objecttolerance="10"
     gridtolerance="10"
     guidetolerance="10"
     inkscape:pageopacity="0"
     inkscape:pageshadow="2"
     inkscape:window-width="640"
     inkscape:window-height="480"
     id="namedview6"
     showgrid="false"
     inkscape:zoom="3.6875"
     inkscape:cx="33.288664"
     inkscape:cy="32"
     inkscape:window-x="75"
     inkscape:window-y="34"
     inkscape:window-maximized="0"
     inkscape:current-layer="svg2" />
  <path
     style="fill:#000000"
     d="M 17.71875 0.28125 C 15.785514 0.28125 14.21875 1.848015 14.21875 3.78125 L 14.21875 7.28125 L 21.21875 7.28125 L 21.21875 10.84375 C 9.4696865 11.737292 0.21875 21.553769 0.21875 33.53125 C 0.21875 46.097715 10.402285 56.28125 22.96875 56.28125 C 24.561633 56.28125 26.098713 56.09782 27.59375 55.78125 C 26.864478 54.198243 26.36792 52.509341 26.125 50.71875 C 25.094744 50.910629 24.04033 51.03125 22.96875 51.03125 C 18.293629 51.03125 13.89924 49.212617 10.59375 45.90625 C 7.2882585 42.60076 5.46875 38.206371 5.46875 33.53125 C 5.46875 28.85613 7.2873833 24.46174 10.59375 21.15625 C 13.768841 17.982034 17.939418 16.169526 22.40625 16.03125 L 21.21875 33.21875 C 21.117233 34.656642 21.908928 35.28125 22.96875 35.28125 C 24.028572 35.28125 24.789019 34.657518 24.6875 33.21875 L 23.5 16.03125 C 27.966831 16.169526 32.169534 17.982034 35.34375 21.15625 C 36.928661 22.740742 38.134823 24.566241 39 26.5625 C 40.48862 26.163906 42.041918 25.9375 43.65625 25.9375 C 43.919373 25.9375 44.177128 25.957573 44.4375 25.96875 C 41.502792 17.649879 33.863756 11.539248 24.71875 10.84375 L 24.71875 7.28125 L 31.71875 7.28125 L 31.71875 3.78125 C 31.71875 1.848015 30.151985 0.28125 28.21875 0.28125 L 17.71875 0.28125 z "
     id="path4" />
  <path
     style="fill:#000000"
     inkscape:connector-curvature="0"
     d="m 45.830509,27.830508 c -9.941,0 -18,8.059 -18,18.000001 0,9.941 8.059,18 18,18 9.941,0 18,-8.059 18,-18 0,-9.941001 -8.059,-18.000001 -18,-18.000001 z m 10,20.000001 h -8 v 8 h -4 v -8 h -8 v -4 h 8 v -8.000001 h 4 v 8.000001 h 8 v 4 z"
     id="path6" />
</svg>
