<?xml version="1.0" encoding="UTF-8" standalone="no"?>
<!-- Generated by IcoMoon.io -->

<svg
   xmlns:dc="http://purl.org/dc/elements/1.1/"
   xmlns:cc="http://creativecommons.org/ns#"
   xmlns:rdf="http://www.w3.org/1999/02/22-rdf-syntax-ns#"
   xmlns:svg="http://www.w3.org/2000/svg"
   xmlns="http://www.w3.org/2000/svg"
   xmlns:sodipodi="http://sodipodi.sourceforge.net/DTD/sodipodi-0.dtd"
   xmlns:inkscape="http://www.inkscape.org/namespaces/inkscape"
   version="1.1"
   width="64"
   height="64"
   viewBox="0 0 64 64"
   id="svg2"
   inkscape:version="0.48.4 r9939"
   sodipodi:docname="0039-file-text2.svg">
  <metadata
     id="metadata16">
    <rdf:RDF>
      <cc:Work
         rdf:about="">
        <dc:format>image/svg+xml</dc:format>
        <dc:type
           rdf:resource="http://purl.org/dc/dcmitype/StillImage" />
        <dc:title></dc:title>
      </cc:Work>
    </rdf:RDF>
  </metadata>
  <defs
     id="defs14" />
  <sodipodi:namedview
     pagecolor="#ffffff"
     bordercolor="#666666"
     borderopacity="1"
     objecttolerance="10"
     gridtolerance="10"
     guidetolerance="10"
     inkscape:pageopacity="0"
     inkscape:pageshadow="2"
     inkscape:window-width="640"
     inkscape:window-height="480"
     id="namedview12"
     showgrid="false"
     inkscape:zoom="3.6875"
     inkscape:cx="47.796527"
     inkscape:cy="31.902267"
     inkscape:window-x="75"
     inkscape:window-y="34"
     inkscape:window-maximized="0"
     inkscape:current-layer="svg2" />
  <path
     style="fill:#000000"
     d="M 4.53125 0.28125 C 2.1480805 0.28125 0.21875 2.2105805 0.21875 4.59375 L 0.21875 51.28125 C 0.21875 53.664419 2.1480805 55.59375 4.53125 55.59375 L 26.59375 55.59375 C 25.991236 54.485884 25.48357 53.336908 25.09375 52.125 L 4.53125 52.125 C 4.0627415 52.125 3.65625 51.749758 3.65625 51.28125 L 3.65625 4.59375 C 3.65625 4.1252415 4.0627415 3.71875 4.53125 3.71875 L 31.3125 3.71875 L 31.3125 15.84375 C 31.3125 16.79892 32.107331 17.5625 33.0625 17.5625 L 45.15625 17.5625 L 45.15625 24.96875 C 45.512862 24.95249 45.889153 24.9375 46.25 24.9375 C 47.055934 24.9375 47.841399 24.982536 48.625 25.0625 L 48.625 17.5625 C 48.625 16.787992 48.387207 15.443097 46.34375 12.65625 C 45.143954 11.019928 43.462728 9.0868644 41.625 7.25 C 39.787271 5.4131356 37.886321 3.763161 36.25 2.5625 C 33.464017 0.51904239 32.087009 0.28125 31.3125 0.28125 L 4.53125 0.28125 z M 34.78125 5.78125 C 36.023402 6.741606 37.528704 8.0599534 39.1875 9.71875 C 40.846297 11.377546 42.133394 12.852462 43.09375 14.09375 L 34.78125 14.09375 L 34.78125 5.78125 z M 12.3125 27.9375 C 11.35733 27.9375 10.5625 28.701079 10.5625 29.65625 C 10.5625 30.611419 11.35733 31.375 12.3125 31.375 L 30.34375 31.375 C 31.696217 30.043228 33.225774 28.893611 34.90625 27.9375 L 12.3125 27.9375 z M 12.3125 34.84375 C 11.35733 34.84375 10.5625 35.607332 10.5625 36.5625 C 10.5625 37.517671 11.35733 38.3125 12.3125 38.3125 L 25.65625 38.3125 C 26.156317 37.098378 26.78206 35.935642 27.5 34.84375 L 12.3125 34.84375 z M 12.3125 41.75 C 11.35733 41.75 10.5625 42.54483 10.5625 43.5 C 10.5625 44.455169 11.35733 45.21875 12.3125 45.21875 L 24.15625 45.21875 C 24.199444 44.037186 24.353625 42.874182 24.59375 41.75 L 12.3125 41.75 z "
     id="path4" />
  <path
     style="fill:#000000"
     inkscape:connector-curvature="0"
     d="m 45.632874,27.657056 c -9.941,0 -18,8.058999 -18,17.999999 0,9.941001 8.059,18.000001 18,18.000001 9.941,0 18,-8.059 18,-18.000001 0,-9.941 -8.059,-17.999999 -18,-17.999999 z m 10,19.999999 h -8 v 8.000001 h -4 v -8.000001 h -8 v -4 h 8 v -8 h 4 v 8 h 8 v 4 z"
     id="path6-7" />
</svg>
