<?xml version="1.0" encoding="UTF-8" standalone="no"?>
<!-- Generated by IcoMoon.io -->

<svg
   xmlns:dc="http://purl.org/dc/elements/1.1/"
   xmlns:cc="http://creativecommons.org/ns#"
   xmlns:rdf="http://www.w3.org/1999/02/22-rdf-syntax-ns#"
   xmlns:svg="http://www.w3.org/2000/svg"
   xmlns="http://www.w3.org/2000/svg"
   xmlns:sodipodi="http://sodipodi.sourceforge.net/DTD/sodipodi-0.dtd"
   xmlns:inkscape="http://www.inkscape.org/namespaces/inkscape"
   version="1.1"
   width="64"
   height="64"
   viewBox="0 0 64 64"
   id="svg2"
   inkscape:version="0.48.4 r9939"
   sodipodi:docname="0168-meter2.svg">
  <metadata
     id="metadata10">
    <rdf:RDF>
      <cc:Work
         rdf:about="">
        <dc:format>image/svg+xml</dc:format>
        <dc:type
           rdf:resource="http://purl.org/dc/dcmitype/StillImage" />
        <dc:title></dc:title>
      </cc:Work>
    </rdf:RDF>
  </metadata>
  <defs
     id="defs8" />
  <sodipodi:namedview
     pagecolor="#ffffff"
     bordercolor="#666666"
     borderopacity="1"
     objecttolerance="10"
     gridtolerance="10"
     guidetolerance="10"
     inkscape:pageopacity="0"
     inkscape:pageshadow="2"
     inkscape:window-width="640"
     inkscape:window-height="480"
     id="namedview6"
     showgrid="false"
     inkscape:zoom="3.6875"
     inkscape:cx="32"
     inkscape:cy="32"
     inkscape:window-x="75"
     inkscape:window-y="34"
     inkscape:window-maximized="0"
     inkscape:current-layer="svg2" />
  <path
     style="fill:#000000"
     d="M 26.96875 0 C 12.066517 0 -2.3684758e-15 12.066517 0 26.96875 C 0 41.352802 11.253644 53.137371 25.4375 53.9375 C 24.545401 51.758207 24.015713 49.420597 23.90625 46.96875 C 21.056347 46.537467 18.37217 45.535928 15.96875 43.96875 C 16.553945 42.354827 16.875 40.598389 16.875 38.78125 C 16.875 32.227741 12.723627 26.656165 6.90625 24.53125 C 7.4442245 20.055436 9.4503768 15.924623 12.6875 12.6875 C 16.509817 8.8651827 21.562864 6.75 26.96875 6.75 C 32.374636 6.75 37.458933 8.8660259 41.28125 12.6875 C 44.411614 15.817864 46.386431 19.787497 47 24.09375 C 47.020496 24.0937 47.041992 24.09375 47.0625 24.09375 C 49.442086 24.09375 51.713915 24.432477 53.875 25.0625 C 52.889581 11.056999 41.224927 -2.2657953e-15 26.96875 0 z M 26.125 10.125 L 24.875 33.78125 C 24.143928 33.965915 23.625 34.619526 23.625 35.40625 L 23.625 38.78125 C 23.625 39.476907 24.051503 40.086831 24.65625 40.34375 C 25.503205 37.34301 26.996001 34.598369 29 32.25 L 27.8125 10.125 L 26.125 10.125 z "
     id="path4" />
  <path
     style="fill:#000000"
     inkscape:connector-curvature="0"
     d="m 45.830509,27.830508 c -9.941,0 -18,8.059 -18,18 0,9.941 8.059,18 18,18 9.941,0 18,-8.059 18,-18 0,-9.941 -8.059,-18 -18,-18 z m 10,20 h -8 v 8 h -4 v -8 h -8 v -4 h 8 v -8 h 4 v 8 h 8 v 4 z"
     id="path6" />
</svg>
