<?xml version="1.0" encoding="UTF-8" standalone="no"?>
<!-- Generated by IcoMoon.io -->

<svg
   xmlns:dc="http://purl.org/dc/elements/1.1/"
   xmlns:cc="http://creativecommons.org/ns#"
   xmlns:rdf="http://www.w3.org/1999/02/22-rdf-syntax-ns#"
   xmlns:svg="http://www.w3.org/2000/svg"
   xmlns="http://www.w3.org/2000/svg"
   xmlns:sodipodi="http://sodipodi.sourceforge.net/DTD/sodipodi-0.dtd"
   xmlns:inkscape="http://www.inkscape.org/namespaces/inkscape"
   version="1.1"
   width="64"
   height="64"
   viewBox="0 0 64 64"
   id="svg2"
   inkscape:version="0.48.4 r9939"
   sodipodi:docname="0219-heart.svg">
  <metadata
     id="metadata10">
    <rdf:RDF>
      <cc:Work
         rdf:about="">
        <dc:format>image/svg+xml</dc:format>
        <dc:type
           rdf:resource="http://purl.org/dc/dcmitype/StillImage" />
        <dc:title></dc:title>
      </cc:Work>
    </rdf:RDF>
  </metadata>
  <defs
     id="defs8" />
  <sodipodi:namedview
     pagecolor="#ffffff"
     bordercolor="#666666"
     borderopacity="1"
     objecttolerance="10"
     gridtolerance="10"
     guidetolerance="10"
     inkscape:pageopacity="0"
     inkscape:pageshadow="2"
     inkscape:window-width="1324"
     inkscape:window-height="951"
     id="namedview6"
     showgrid="false"
     inkscape:zoom="3.6875"
     inkscape:cx="-27.508793"
     inkscape:cy="31.81285"
     inkscape:window-x="75"
     inkscape:window-y="34"
     inkscape:window-maximized="0"
     inkscape:current-layer="svg2" />
  <path
     d="M 16.8125 4 C 7.5385 4 2.3684758e-15 11.5375 0 20.8125 C 0 27.077785 2.0959854 31.793107 5.375 36 L 19.09375 22.125 L 20.9375 20.28125 L 22.6875 22.15625 L 35.8125 35.96875 L 60.375 10.4375 C 57.297672 6.5317858 52.541682 4 47.1875 4 C 40.4605 4 34.682 9.4715 32 15.1875 C 29.316 9.4725 23.5395 4 16.8125 4 z M 62.96875 15 L 37.59375 41.34375 L 35.78125 43.21875 L 34 41.3125 L 20.84375 27.46875 L 8.6875 39.75 C 15.362333 46.535689 24.658091 52.72294 32 63.28125 C 44.26 44.74525 64 39.0765 64 20.8125 C 64 18.77355 63.634989 16.808711 62.96875 15 z "
     id="path4" />
</svg>
